<svg width="88" height="97" viewBox="0 0 88 97" fill="none" xmlns="http://www.w3.org/2000/svg">
<rect y="3.55664" width="88" height="88" rx="44" fill="#3F3F3F"/>
<rect x="8.83154" y="12.3882" width="70.2318" height="70.2318" rx="35.1159" fill="white"/>
<path d="M14.8477 53.8888L24.6725 85.6562L7.43667 81.1503L14.8477 53.8888Z" fill="#3F3F3F"/>
<path d="M73.0988 53.8888L63.274 85.6562H72.2523L80.5098 81.1503L73.0988 53.8888Z" fill="#3F3F3F"/>
<path d="M34.4253 53.8888L44.25 85.6562H24.6005L34.4253 53.8888Z" fill="#3F3F3F"/>
<path d="M53.8732 53.8888L63.698 85.6562H44.0485L53.8732 53.8888Z" fill="#3F3F3F"/>
<path d="M14.8477 42.3566L24.6725 10.5891L7.43667 15.0951L14.8477 42.3566Z" fill="#3F3F3F"/>
<path d="M73.0988 42.3566L63.274 10.5891H72.2523L80.5098 15.0951L73.0988 42.3566Z" fill="#3F3F3F"/>
<path d="M34.4253 42.3566L44.25 10.5891H24.6005L34.4253 42.3566Z" fill="#3F3F3F"/>
<path d="M53.8732 42.3566L63.698 10.5891H44.0485L53.8732 42.3566Z" fill="#3F3F3F"/>
</svg>
